<?xml version="1.0" encoding="UTF-8"?>
<svg version="1.1" xmlns="http://www.w3.org/2000/svg" width="1024" height="1024">
<path d="M0 0 C337.92 0 675.84 0 1024 0 C1024 337.92 1024 675.84 1024 1024 C686.08 1024 348.16 1024 0 1024 C0 686.08 0 348.16 0 0 Z " fill="#09090B" transform="translate(0,0)"/>
<path d="M0 0 C3.07348633 1.42358398 3.07348633 1.42358398 6.33203125 3.24609375 C6.921017 3.57260925 7.51000275 3.89912476 8.11683655 4.23553467 C10.02045059 5.29407288 11.91650589 6.36538285 13.8125 7.4375 C15.13331273 8.17609815 16.4544411 8.91413211 17.77587891 9.65161133 C25.16829192 13.78807056 32.51974636 17.99219412 39.79443359 22.33276367 C46.72908416 26.46631508 53.76804608 30.41296544 60.81005859 34.36010742 C66.20568979 37.39153661 71.53915327 40.50458315 76.83618164 43.70507812 C79.27315252 45.16346621 81.74396788 46.53900275 84.25 47.875 C88.6869944 50.27731554 93.10457696 52.71010041 97.5 55.1875 C98.09973633 55.52056152 98.69947266 55.85362305 99.31738281 56.19677734 C102.24699976 57.85689362 104.7831869 59.44274775 107 62 C106.113125 62.61875 105.22625 63.2375 104.3125 63.875 C99.21181566 68.09333847 96.37186129 74.61273186 95 81 C91.10623772 79.53849338 87.54437134 77.73841915 83.90625 75.7265625 C83.32678619 75.40693039 82.74732239 75.08729828 82.15029907 74.75798035 C80.26512395 73.7167676 78.38247143 72.67109187 76.5 71.625 C75.18477335 70.89665578 73.86950604 70.16838498 72.55419922 69.44018555 C63.36301501 64.34445061 54.22014387 59.16789187 45.109375 53.9296875 C38.59085217 50.18343917 32.04025237 46.49386626 25.48339844 42.81518555 C20.78320839 40.17082683 16.11648514 37.48751608 11.5 34.69921875 C10.63455566 34.18109619 9.76911133 33.66297363 8.87744141 33.12915039 C7.25244056 32.15240598 5.63441643 31.16392402 4.02490234 30.16186523 C3.30254395 29.72946533 2.58018555 29.29706543 1.8359375 28.8515625 C1.21251465 28.46822754 0.5890918 28.08489258 -0.05322266 27.68994141 C-2.75053879 26.7340077 -4.27804333 27.17190237 -7 28 C-8.77263255 28.84679136 -10.51122465 29.76687045 -12.21875 30.73828125 C-13.22260742 31.30498535 -14.22646484 31.87168945 -15.26074219 32.45556641 C-16.32969727 33.06835449 -17.39865234 33.68114258 -18.5 34.3125 C-19.6127832 34.94333496 -20.72556641 35.57416992 -21.87207031 36.22412109 C-25.25202971 38.1425155 -28.62646915 40.07032828 -32 42 C-33.85918395 43.05892925 -35.7185454 44.11754696 -37.578125 45.17578125 C-42.72403546 48.10798836 -47.8627763 51.05260668 -53 54 C-65.1460492 60.96858583 -77.32190939 67.87880944 -89.54614258 74.70947266 C-96.68884227 78.70154782 -103.81754787 82.71750826 -110.9375 86.75 C-117.6097369 90.52800337 -124.29200421 94.28584887 -131 98 C-137.93601002 101.84097243 -144.84789973 105.72342113 -151.75 109.625 C-152.66007812 110.13933594 -153.57015625 110.65367187 -154.5078125 111.18359375 C-162.01804495 115.43365366 -169.50740152 119.71851515 -177 124 C-177 190.33 -177 256.66 -177 325 C-169.41 329.29 -161.82 333.58 -154 338 C-151.36 339.65 -148.72 341.3 -146 343 C-144.824375 343.495 -143.64875 343.99 -142.4375 344.5 C-139.72948596 345.68167886 -137.98106119 346.64947032 -135.6875 348.375 C-130.83049475 352.00141872 -125.35932327 354.41399979 -119.8984375 356.9921875 C-115.36687589 359.17672517 -111.28757368 361.73125513 -107.17578125 364.6328125 C-105.01851729 366.07957642 -105.01851729 366.07957642 -102.50390625 366.99609375 C-99.12845736 368.34943285 -96.42734998 370.36710211 -93.4765625 372.46484375 C-90.94575154 374.12474627 -90.94575154 374.12474627 -87.7253418 375.36425781 C-84.23425965 376.83799466 -81.11821181 378.66798616 -77.91796875 380.70703125 C-71.17981995 384.94074513 -64.27955406 388.84155942 -57.3125 392.6875 C-56.16716797 393.32494141 -55.02183594 393.96238281 -53.84179688 394.61914062 C-47.30321033 398.24171945 -40.72184305 401.72926933 -34 405 C-34 405.66 -34 406.32 -34 407 C-32.824375 407.309375 -32.824375 407.309375 -31.625 407.625 C-27.65169407 409.13211604 -24.34005682 411.12135874 -20.7265625 413.33203125 C-17.89579837 415.06374512 -15.06042232 416.77647079 -12.1875 418.4375 C-11.31480469 418.95183594 -10.44210937 419.46617187 -9.54296875 419.99609375 C-6.43623026 421.22256348 -5.18783342 420.86922103 -2 420 C0.34458745 418.91498217 0.34458745 418.91498217 2.67578125 417.515625 C3.57361328 416.99935547 4.47144531 416.48308594 5.39648438 415.95117188 C6.83991211 415.1090918 6.83991211 415.1090918 8.3125 414.25 C10.39083398 413.05538792 12.47029665 411.86273772 14.55078125 410.671875 C15.61893066 410.06021484 16.68708008 409.44855469 17.78759766 408.81835938 C22.81829629 405.97076526 27.90709624 403.23429632 33 400.5 C46.16082832 393.41554727 59.18949894 386.09843568 72.12890625 378.6171875 C77.20931723 375.68188408 82.28302193 372.81579676 87.5625 370.25 C93.90331925 367.13783937 99.98145892 363.61791813 106.09716797 360.09130859 C113.91199204 355.59583822 121.78871451 351.2204878 129.6875 346.875 C130.61926559 346.3622049 130.61926559 346.3622049 131.56985474 345.83905029 C134.01748424 344.49209706 136.46524758 343.14538791 138.91334534 341.79928589 C144.07381357 338.9613443 149.22687128 336.11025479 154.375 333.25 C155.06295654 332.86827637 155.75091309 332.48655273 156.4597168 332.09326172 C157.09949463 331.7376416 157.73927246 331.38202148 158.3984375 331.015625 C158.93130371 330.71946289 159.46416992 330.42330078 160.01318359 330.11816406 C160.66883301 329.74916992 161.32448242 329.38017578 162 329 C163.17783334 328.48502583 164.35566668 327.97005165 165.56919193 327.4394722 C167.47587552 326.41725763 167.47587552 326.41725763 169 325 C169.73495086 321.94362759 169.94503791 319.91455288 169.87974548 316.85028076 C169.88981001 316.02198549 169.89987454 315.19369021 169.91024405 314.34029508 C169.93551954 311.56027071 169.91084577 308.78292945 169.88647461 306.00292969 C169.89436108 304.01220307 169.90532035 302.02148659 169.91912842 300.03079224 C169.94791152 294.62182313 169.93359379 289.21371705 169.91168666 283.80474758 C169.89607995 278.15388231 169.91990354 272.50318863 169.93959045 266.85235596 C169.97086277 256.1496838 169.96654213 245.44733203 169.94951588 234.74463964 C169.93186041 222.56091592 169.95375902 210.37736453 169.97902286 198.19366598 C170.03010789 173.12905342 170.03138178 148.06463534 170 123 C169.0807373 122.71012207 168.16147461 122.42024414 167.21435547 122.12158203 C163.52025562 120.83260325 160.39855106 118.97096143 157.125 116.875 C156.53203125 116.50246094 155.9390625 116.12992187 155.328125 115.74609375 C153.8818657 114.83635 152.44041954 113.91896202 151 113 C151.86625 112.0925 152.7325 111.185 153.625 110.25 C157.81110769 105.41604231 160.33088001 99.76416339 163 94 C171.29963382 97.97717429 179.28569024 102.22128476 187.11157227 107.06616211 C189.73030558 108.68044007 192.06849781 110.0228326 195 111 C195 186.57 195 262.14 195 340 C190.38 342.31 185.76 344.62 181 347 C178.65347535 348.28803957 176.31805544 349.59718272 174.0078125 350.94921875 C172.84065611 351.62632816 171.67299745 352.30257239 170.50488281 352.97802734 C169.9264563 353.31316345 169.34802979 353.64829956 168.7520752 353.99359131 C165.85040774 355.66033675 162.92261303 357.27903242 159.9921875 358.89453125 C159.41371063 359.21349869 158.83523376 359.53246613 158.23922729 359.86109924 C156.45159552 360.84570841 154.66329529 361.82909655 152.875 362.8125 C151.59808549 363.51592474 150.32123094 364.21945833 149.04443359 364.9230957 C143.5276851 367.96251136 138.00828916 370.9970597 132.484375 374.0234375 C130.86449849 374.91130357 129.24470348 375.79931834 127.625 376.6875 C126.83867188 377.11869141 126.05234375 377.54988281 125.2421875 377.99414062 C119.0883062 381.37877534 112.98025482 384.84110809 106.875 388.3125 C97.50931952 393.63599972 88.04789209 398.76225846 78.54785156 403.84130859 C70.9931168 407.89290318 63.54046287 412.09243738 56.12158203 416.38647461 C48.15436707 420.97023752 40.0483349 425.28247235 31.9303894 429.59066772 C23.91339882 433.84867978 15.98140482 438.20670403 8.23535156 442.94384766 C-1.825983 449.05039112 -1.825983 449.05039112 -7.5390625 448.91796875 C-11.38569798 447.89769862 -14.02785675 446.46309917 -17.375 444.3125 C-18.69294182 443.48708799 -20.01345367 442.66577125 -21.3359375 441.84765625 C-22.0690918 441.39406738 -22.80224609 440.94047852 -23.55761719 440.47314453 C-28.30260189 437.61116556 -33.15770095 434.94280699 -38 432.25 C-40.15760453 431.04696905 -42.3151561 429.84384312 -44.47265625 428.640625 C-45.5517627 428.03927734 -46.63086914 427.43792969 -47.74267578 426.81835938 C-52.98243443 423.89333146 -58.21139392 420.94933564 -63.4375 418 C-64.35337891 417.48469727 -65.26925781 416.96939453 -66.21289062 416.43847656 C-70.54128936 413.99441012 -74.83663224 411.51043042 -79.08984375 408.9375 C-83.69882012 406.15540353 -88.39009318 403.56003314 -93.125 401 C-106.72529954 393.58390882 -120.11509591 385.78139273 -133.36328125 377.75390625 C-136.69812912 375.74804479 -140.03790347 373.90736753 -143.5625 372.25 C-149.19352757 369.48450803 -154.55315221 366.37798895 -159.9387207 363.17163086 C-166.16457887 359.4719699 -172.44528594 355.87598926 -178.75 352.3125 C-179.67143799 351.79034912 -180.59287598 351.26819824 -181.54223633 350.73022461 C-188.64686432 346.72108108 -195.81351695 342.86964472 -203 339 C-203 263.76 -203 188.52 -203 111 C-192.605 105.06 -192.605 105.06 -182 99 C-177.74813734 96.54476723 -173.4978071 94.08719942 -169.25 91.625 C-160.6238731 86.63370894 -151.95830471 81.72137265 -143.25 76.875 C-134.25360277 71.86819865 -125.34833351 66.72910718 -116.51660156 61.43701172 C-110.42700516 57.79723933 -104.24083298 54.37269552 -98 51 C-95.24533047 49.48754792 -92.49695458 47.96391266 -89.75 46.4375 C-88.62779053 45.81403687 -88.62779053 45.81403687 -87.48291016 45.17797852 C-79.12186824 40.52396608 -70.79572945 35.80834094 -62.46875 31.09375 C-57.94305744 28.53168438 -53.41069462 25.98179977 -48.875 23.4375 C-43.61151319 20.48227147 -38.36262832 17.50211725 -33.12182617 14.50683594 C-31.30540183 13.46906368 -29.48787249 12.43322288 -27.66918945 11.39941406 C-23.66886105 9.12151583 -19.68694439 6.82726381 -15.76171875 4.421875 C-15.1289502 4.04039307 -14.49618164 3.65891113 -13.84423828 3.26586914 C-12.19224721 2.26602746 -10.55071649 1.24895782 -8.91015625 0.23046875 C-5.3012485 -1.29544527 -3.77965947 -0.91706414 0 0 Z " fill="#459CBC" transform="translate(525,180)"/>
<path d="M0 0 C2.28222656 1.0847168 2.28222656 1.0847168 4.640625 2.44921875 C5.53378418 2.96057373 6.42694336 3.47192871 7.34716797 3.9987793 C8.30510254 4.55605713 9.26303711 5.11333496 10.25 5.6875 C12.3199178 6.87568787 14.39024487 8.06316297 16.4609375 9.25 C17.5344043 9.86746094 18.60787109 10.48492187 19.71386719 11.12109375 C25.07637405 14.18720466 30.47787493 17.18290213 35.875 20.1875 C43.46913661 24.42696204 51.01139816 28.73437301 58.4855957 33.18139648 C64.61761801 36.81309641 70.83606506 40.28326699 77.0625 43.75 C86.42700141 48.96509764 95.70912319 54.30325089 104.95019531 59.73364258 C113.35145394 64.65649263 121.83643748 69.42093581 130.36523438 74.11914062 C131.33396484 74.65603516 132.30269531 75.19292969 133.30078125 75.74609375 C134.13778564 76.20685303 134.97479004 76.6676123 135.8371582 77.14233398 C136.880896 77.75536377 137.92463379 78.36839355 139 79 C139.91295334 79.32981369 140.82590668 79.65962738 141.76652527 79.99943542 C145.38702573 81.61496621 147.44417642 82.94008345 150 86 C152.08200182 92.90199718 151.27384491 100.57022223 151.07421875 107.68359375 C151.0536897 109.82589215 151.03803759 111.96824236 151.02705383 114.11061096 C150.98515091 119.73607206 150.87719164 125.35838409 150.75531006 130.98260498 C150.64256535 136.72690223 150.59249825 142.47171095 150.53710938 148.21679688 C150.41931052 159.47924454 150.23169805 170.73935994 150 182 C149.31573944 181.8582988 148.63147888 181.7165976 147.92648315 181.57060242 C147.02761383 181.38705704 146.12874451 181.20351166 145.20263672 181.0144043 C144.31212616 180.83145309 143.4216156 180.64850189 142.50411987 180.46000671 C139.67733556 179.94072656 136.99756122 179.76561844 134.125 179.8125 C132.79855469 179.82216797 132.79855469 179.82216797 131.4453125 179.83203125 C128.71074647 179.94801297 128.71074647 179.94801297 125 181 C125 154.27 125 127.54 125 100 C123.35 99.34 121.7 98.68 120 98 C118.47308884 97.20293002 116.96160417 96.37577926 115.46484375 95.5234375 C114.58779785 95.02593994 113.71075195 94.52844238 112.80712891 94.01586914 C111.86015137 93.47438232 110.91317383 92.93289551 109.9375 92.375 C108.93380371 91.80450928 107.93010742 91.23401855 106.89599609 90.64624023 C100.13955668 86.80248727 93.39479237 82.93826206 86.64770508 79.078125 C86.06808014 78.74651367 85.4884552 78.41490234 84.89126587 78.07324219 C83.70868258 77.39651121 82.5262087 76.719589 81.34384155 76.04248047 C73.00740767 71.26895745 64.64189781 66.55049534 56.25 61.875 C48.04591897 57.30407153 39.90982076 52.63231506 31.8125 47.875 C23.84445213 43.2144437 15.86431952 38.57710013 7.8125 34.0625 C6.44025269 33.27238525 6.44025269 33.27238525 5.0402832 32.46630859 C4.18781006 31.99402832 3.33533691 31.52174805 2.45703125 31.03515625 C1.71428955 30.6162915 0.97154785 30.19742676 0.20629883 29.76586914 C-3.43949844 28.50030911 -5.99406751 29.53980681 -9.40576172 31.10058594 C-10.23865723 31.55723633 -11.07155273 32.01388672 -11.9296875 32.484375 C-12.87787354 33.00064453 -13.82605957 33.51691406 -14.80297852 34.04882812 C-16.32362915 34.8909082 -16.32362915 34.8909082 -17.875 35.75 C-18.93710693 36.33201172 -19.99921387 36.91402344 -21.09350586 37.51367188 C-31.1513569 43.04210535 -41.14378195 48.68624016 -51.11914062 54.36181641 C-56.01270182 57.14451095 -60.91231038 59.9164988 -65.8125 62.6875 C-66.77422119 63.23148437 -67.73594238 63.77546875 -68.72680664 64.3359375 C-74.4711964 67.58167735 -80.22816494 70.80335155 -86 74 C-93.0569771 77.91039459 -100.09625504 81.85157447 -107.125 85.8125 C-108.56552734 86.62170898 -108.56552734 86.62170898 -110.03515625 87.44726562 C-114.89287768 90.18952773 -119.66153411 92.9899355 -124.30273438 96.0871582 C-126.91841122 97.49394988 -129.11619582 97.41197203 -132 97 C-132.66 96.67 -133.32 96.34 -134 96 C-136.41502939 95.9017811 -138.83297881 95.87026074 -141.25 95.875 C-142.55453125 95.87242187 -143.8590625 95.86984375 -145.203125 95.8671875 C-149.38858994 95.93134289 -149.38858994 95.93134289 -155 97 C-155 92.71 -155 88.42 -155 84 C-153.80890625 83.319375 -152.6178125 82.63875 -151.390625 81.9375 C-150.58786133 81.47875488 -149.78509766 81.02000977 -148.95800781 80.54736328 C-147.11368646 79.49351287 -145.26928211 78.4398077 -143.42480469 77.38623047 C-138.03128278 74.30509953 -132.63943449 71.22108811 -127.25 68.1328125 C-113.88120681 60.4750815 -100.47773438 52.88496717 -87.02734375 45.37109375 C-68.41544926 34.97112368 -49.90219623 24.39735401 -31.40625 13.79296875 C-27.01685822 11.27661983 -22.6202781 8.77315858 -18.22167969 6.27294922 C-16.27552188 5.15786495 -14.34250378 4.02423268 -12.4140625 2.87890625 C-10.97160156 2.04166016 -10.97160156 2.04166016 -9.5 1.1875 C-8.7265625 0.72730469 -7.953125 0.26710937 -7.15625 -0.20703125 C-4.34174457 -1.24207582 -2.88333785 -0.76298698 0 0 Z " fill="#54BAC4" transform="translate(524,227)"/>
<path d="M0 0 C0 9.57 0 19.14 0 29 C-1.81242188 29.96679688 -3.62484375 30.93359375 -5.4921875 31.9296875 C-22.47925463 40.99967863 -22.47925463 40.99967863 -39.3425293 50.29711914 C-45.42421086 53.69798153 -51.55340075 57.00730644 -57.6875 60.3125 C-65.82470924 64.69981036 -73.90265062 69.17800842 -81.9375 73.75 C-89.19108867 77.87727362 -96.48231651 81.89820124 -103.87646484 85.76757812 C-108.81376133 88.35585769 -113.6964232 91.03038751 -118.5625 93.75 C-120.83723121 95.01684561 -123.11255171 96.28262455 -125.38818359 97.54785156 C-127.28226329 98.60094429 -129.17573993 99.65512192 -131.06884766 100.70996094 C-134.33275025 102.52383707 -137.60318572 104.32544085 -140.875 106.125 C-141.91599854 106.70604492 -142.95699707 107.28708984 -144.02954102 107.88574219 C-145.00721436 108.42102539 -145.9848877 108.95630859 -146.9921875 109.5078125 C-147.86214355 109.98879395 -148.73209961 110.46977539 -149.62841797 110.96533203 C-152 112 -152 112 -156 112 C-158.32397461 110.99707031 -158.32397461 110.99707031 -160.90234375 109.578125 C-161.86479004 109.05307373 -162.82723633 108.52802246 -163.81884766 107.98706055 C-165.36258057 107.12721558 -165.36258057 107.12721558 -166.9375 106.25 C-168.00274902 105.66452393 -169.06799805 105.07904785 -170.16552734 104.47583008 C-179.72353626 99.20339926 -189.20818078 93.80273783 -198.66259766 88.34716797 C-202.20670739 86.30451103 -205.75957828 84.27727703 -209.3125 82.25 C-211.20833333 81.16666667 -213.10416667 80.08333333 -215 79 C-213.61018485 76.01991559 -211.94925536 73.51624101 -210 70.875 C-206.76182764 66.1283132 -205.68399977 61.64889461 -205 56 C-201.56123669 57.28982084 -198.51813062 58.78946829 -195.3984375 60.72265625 C-188.88320997 64.69909186 -182.22981035 68.41608407 -175.57299805 72.14892578 C-167.02097195 76.95585668 -167.02097195 76.95585668 -162.98046875 79.43359375 C-161.93503906 80.07425781 -160.88960937 80.71492187 -159.8125 81.375 C-158.95269531 81.91898438 -158.09289062 82.46296875 -157.20703125 83.0234375 C-154.49238601 84.22460796 -153.77093353 83.917184 -151 83 C-149.3673413 82.21610124 -147.75833142 81.3821227 -146.16796875 80.515625 C-145.21680176 79.99943604 -144.26563477 79.48324707 -143.28564453 78.95141602 C-142.26325684 78.38994873 -141.24086914 77.82848145 -140.1875 77.25 C-138.58430908 76.37589478 -138.58430908 76.37589478 -136.94873047 75.48413086 C-128.84928659 71.05320256 -120.81255496 66.51609626 -112.78979492 61.94824219 C-104.49333609 57.24041208 -96.09890852 52.72683374 -87.6875 48.22851562 C-80.6108098 44.43382961 -73.59941168 40.54168313 -66.625 36.5625 C-58.3372778 31.84166418 -49.99397018 27.23389064 -41.59515381 22.71432495 C-40.32946528 22.033048 -39.06452315 21.35038246 -37.800354 20.66629028 C-36.03985446 19.71451967 -34.27586336 18.76921596 -32.51171875 17.82421875 C-31.49553467 17.27854248 -30.47935059 16.73286621 -29.43237305 16.1706543 C-27 15 -27 15 -25 15 C-25 10.38 -25 5.76 -25 1 C-23.02 1.33 -21.04 1.66 -19 2 C-12.2466281 2.44883306 -6.38560125 0 0 0 Z " fill="#3B8FB9" transform="translate(674,467)"/>
<path d="M0 0 C6.80625 -0.0825 13.6125 -0.165 20.625 -0.25 C22.74244629 -0.28641602 24.85989258 -0.32283203 27.04150391 -0.36035156 C40.13569018 -0.49119138 53.76298741 -0.32705591 64 9 C68.09609247 14.63334333 67.86178362 20.279745 67 27 C64.96060852 32.46670215 60.99778031 34.98546791 55.8671875 37.37109375 C54 38 54 38 51 38 C51 38.66 51 39.32 51 40 C51.99 40.0825 52.98 40.165 54 40.25 C61.29931891 41.34121131 66.25211025 44.66538829 70.87109375 50.31640625 C73.9122943 54.85189911 73.49365022 60.12201922 72.609375 65.27734375 C70.90220246 71.67924076 67.55191517 75.4590905 62 79 C55.99023282 81.71989463 49.6182355 83.13091883 43.02612305 83.11352539 C41.56523254 83.11334412 41.56523254 83.11334412 40.0748291 83.11315918 C39.06400269 83.10804321 38.05317627 83.10292725 37.01171875 83.09765625 C35.60388123 83.09614563 35.60388123 83.09614563 34.16760254 83.09460449 C30.67422253 83.08938734 27.18085999 83.07542608 23.6875 83.0625 C15.870625 83.041875 8.05375 83.02125 0 83 C0 55.61 0 28.22 0 0 Z " fill="#F3F2F3" transform="translate(212,677)"/>
<path d="M0 0 C1.98 0.66 3.96 1.32 6 2 C9.75285987 2.277436 9.75285987 2.277436 13.625 2.1875 C14.91664063 2.18105469 16.20828125 2.17460937 17.5390625 2.16796875 C20.28291431 2.03480213 22.39336024 1.71534529 25 1 C24.95550468 2.76740288 24.95550468 2.76740288 24.91011047 4.57051086 C24.64228372 15.70699086 24.47571764 26.84106618 24.40672016 37.98060322 C24.3680341 43.70754017 24.2944651 49.42947909 24.1394043 55.15454102 C23.99088011 60.6867206 23.93630671 66.21279094 23.94515038 71.74687767 C23.93232924 73.85111141 23.8863859 75.95542653 23.805933 78.05816078 C23.34515065 87.7892375 23.34515065 87.7892375 26 97 C30.78271527 101.81028011 36.93059069 104.55341514 43.17525005 106.99995708 C45 108 45 108 46 111 C45.49210937 111.29390625 44.98421875 111.5878125 44.4609375 111.890625 C37.76078269 116.25701802 35.08962317 121.76747303 32 129 C27.90150955 127.75045109 24.40856788 126.24187175 20.7421875 124.03125 C19.78699219 123.46019531 18.83179688 122.88914062 17.84765625 122.30078125 C16.86667969 121.70652344 15.88570313 121.11226563 14.875 120.5 C12.91473529 119.32179657 10.95382309 118.14466958 8.9921875 116.96875 C7.69837158 116.18661133 7.69837158 116.18661133 6.37841797 115.38867188 C4.2992944 114.17474713 2.15339139 113.07669569 0 112 C0 75.04 0 38.08 0 0 Z " fill="#3682B4" transform="translate(369,383)"/>
<path d="M0 0 C4.95 0 9.9 0 15 0 C16.05316406 1.98515625 17.10632813 3.9703125 18.19140625 6.015625 C21.59919707 12.43820112 25.0124212 18.85787741 28.42741394 25.27662659 C30.73581148 29.61704667 33.03773084 33.9608043 35.33308411 38.30813599 C36.70517093 40.9046834 38.0817886 43.49880984 39.45944214 46.09240723 C40.11082516 47.32123239 40.76018405 48.55113268 41.40750122 49.78210449 C42.30680777 51.49160943 43.21375319 53.19708937 44.12109375 54.90234375 C44.6308374 55.86648193 45.14058105 56.83062012 45.66577148 57.82397461 C46.8143001 60.12745883 46.8143001 60.12745883 49 61 C49.26103516 60.31566895 49.52207031 59.63133789 49.79101562 58.92626953 C51.16493356 55.60078884 52.73157623 52.39367508 54.34375 49.1796875 C54.66930374 48.52721542 54.99485748 47.87474335 55.33027649 47.20249939 C56.38445505 45.09212447 57.44194458 42.9834336 58.5 40.875 C58.85871185 40.15879486 59.21742371 39.44258972 59.58700562 38.7046814 C73.80664195 10.32226341 73.80664195 10.32226341 80 0 C84.62 0 89.24 0 94 0 C94 27.39 94 54.78 94 83 C89.38 83 84.76 83 80 83 C79.67 61.55 79.34 40.1 79 18 C74.69127002 26.07886872 70.45261232 34.04389932 66.39575195 42.22607422 C62.07894346 50.92472786 57.57369447 59.52857346 53.10327148 68.14892578 C52.62166313 69.07776077 52.62166313 69.07776077 52.13032532 70.02536011 C51.24635668 71.72970853 50.36172405 73.43371253 49.47705078 75.13769531 C48.30075792 77.41717589 47.13931985 79.70189664 46 82 C45.01 82 44.02 82 43 82 C42.37339478 80.77651855 42.37339478 80.77651855 41.73413086 79.52832031 C40.15068233 76.44051922 38.56421826 73.35430416 36.97583008 70.26904297 C36.29496884 68.94510165 35.61524096 67.62057675 34.93676758 66.29541016 C31.00362371 58.61544456 26.93747019 51.07617494 22.53833008 43.64892578 C20.48449277 40.11232289 18.65266743 36.49372119 16.875 32.8125 C14.09222391 27.08976173 11.09853879 21.57736983 8 16 C7.67 37.78 7.34 59.56 7 82 C4.69 82 2.38 82 0 82 C0 54.94 0 27.88 0 0 Z " fill="#F5F4F5" transform="translate(731,677)"/>
<path d="M0 0 C3.3 0 6.6 0 10 0 C18.10725541 15.17542891 25.86947332 30.51980456 33.57177734 45.90332031 C35.30356264 49.36130451 37.04281071 52.81548257 38.78357887 56.26895142 C40.13440168 58.95204286 41.47990445 61.63777549 42.82392502 64.32427979 C43.46386006 65.60112984 44.10578957 66.87698238 44.74977493 68.15179443 C45.64040577 69.91607507 46.52280359 71.68450464 47.40478516 73.453125 C48.15896225 74.95601074 48.15896225 74.95601074 48.92837524 76.48925781 C50 79 50 79 50 82 C45.05 82 40.1 82 35 82 C33.49290789 78.89909818 31.99412108 75.79464369 30.5 72.6875 C29.85611328 71.36588867 29.85611328 71.36588867 29.19921875 70.01757812 C28.79316406 69.17001953 28.38710938 68.32246094 27.96875 67.44921875 C27.59169922 66.66893311 27.21464844 65.88864746 26.82617188 65.0847168 C26 63 26 63 26 60 C10.49 60 -5.02 60 -21 60 C-21.33 61.65 -21.66 63.3 -22 65 C-22.5668898 66.42285586 -23.18384599 67.82672738 -23.84765625 69.20703125 C-24.20537109 69.95791016 -24.56308594 70.70878906 -24.93164062 71.48242188 C-25.30482422 72.25134766 -25.67800781 73.02027344 -26.0625 73.8125 C-26.43955078 74.60076172 -26.81660156 75.38902344 -27.20507812 76.20117188 C-28.13170161 78.13652473 -29.06517467 80.06859549 -30 82 C-32.64 82 -35.28 82 -38 82 C-37.36895099 77.34889348 -35.46139608 73.48162437 -33.38671875 69.33203125 C-33.02091705 68.58789978 -32.65511536 67.84376831 -32.27822876 67.0770874 C-31.49344174 65.48145101 -30.70617168 63.8870339 -29.91665649 62.29373169 C-27.84584143 58.11348939 -25.79378808 53.92407313 -23.7421875 49.734375 C-23.33339859 48.90027603 -22.92460968 48.06617706 -22.50343323 47.20680237 C-18.99960296 40.03941092 -15.62552458 32.81999062 -12.3125 25.5625 C-8.37874009 16.94851972 -4.34518113 8.41496346 0 0 Z " fill="#F7F6F7" transform="translate(665,677)"/>
<path d="M0 0 C4.29 0 8.58 0 13 0 C13 27.06 13 54.12 13 82 C8.71 82 4.42 82 0 82 C0 69.13 0 56.26 0 43 C-16.17 43 -32.34 43 -49 43 C-49 55.87 -49 68.74 -49 82 C-53.62 82 -58.24 82 -63 82 C-63 55.27 -63 28.54 -63 1 C-58.38 1 -53.76 1 -49 1 C-49 13.21 -49 25.42 -49 38 C-32.83 38 -16.66 38 0 38 C0 25.46 0 12.92 0 0 Z " fill="#F7F7F8" transform="translate(598,677)"/>
<path d="M0 0 C2.31 0 4.62 0 7 0 C7 27.06 7 54.12 7 82 C-1 82 -1 82 -2.95874023 80.8894043 C-3.40419189 80.37289307 -3.84964355 79.85638184 -4.30859375 79.32421875 C-4.82284912 78.74937744 -5.33710449 78.17453613 -5.86694336 77.58227539 C-6.38522705 76.95699951 -6.90351074 76.33172363 -7.4375 75.6875 C-7.99896729 75.0473999 -8.56043457 74.4072998 -9.13891602 73.74780273 C-13.06588213 69.23598129 -16.82324879 64.58105722 -20.55859375 59.91015625 C-24.14681407 55.63299763 -27.99711535 51.61565188 -31.83422852 47.5625 C-36.11633994 43.01475467 -40.0732217 38.32144593 -43.96875 33.4375 C-46.5517884 30.33785392 -49.35414539 27.53504256 -52.2734375 24.75390625 C-54 23 -54 23 -57 19 C-57.33 39.79 -57.66 60.58 -58 82 C-60.31 82 -62.62 82 -65 82 C-65 55.27 -65 28.54 -65 1 C-55 1 -55 1 -51.4375 3.8125 C-50.25835454 5.18030873 -49.11583394 6.58007066 -48 8 C-47.27941406 8.88042969 -46.55882812 9.76085937 -45.81640625 10.66796875 C-44.26858434 12.56033112 -42.72823033 14.45882571 -41.1953125 16.36328125 C-38.82648088 19.2084082 -36.30961376 21.78049983 -33.65625 24.35546875 C-30.58537335 27.40461749 -27.81779122 30.71858682 -25 34 C-22.8982519 36.43959378 -20.79350306 38.87657876 -18.6875 41.3125 C-18.12949707 41.95856201 -17.57149414 42.60462402 -16.99658203 43.27026367 C-12.69342187 48.23750712 -8.29514233 53.10572545 -3.828125 57.92578125 C-2 60 -2 60 -1 62 C-0.67 41.54 -0.34 21.08 0 0 Z " fill="#F6F6F7" transform="translate(406,677)"/>
<path d="M0 0 C5.14800828 4.2900069 9.70600136 8.32484778 10.625 15.1875 C7.655 16.5075 4.685 17.8275 1.625 19.1875 C1.11710937 18.29546875 0.60921875 17.4034375 0.0859375 16.484375 C-0.60866822 15.30166796 -1.30402076 14.1193993 -2 12.9375 C-2.33128906 12.35097656 -2.66257812 11.76445313 -3.00390625 11.16015625 C-6.13010597 5.91050012 -9.66383396 3.36659437 -15.1953125 0.9609375 C-19.26519886 -0.02903486 -23.07564179 -0.18053112 -27.25 -0.1875 C-28.01441406 -0.21199219 -28.77882813 -0.23648438 -29.56640625 -0.26171875 C-37.72664766 -0.30328195 -43.8057606 3.08894109 -49.7734375 8.484375 C-56.60505894 15.74922121 -58.75393502 23.68118032 -58.6875 33.4375 C-58.68258545 34.2828833 -58.6776709 35.1282666 -58.67260742 35.99926758 C-58.47422258 46.56656701 -55.83171612 55.24123167 -48.58984375 63.1328125 C-40.65862663 70.66983394 -32.85497456 71.78298038 -22.1015625 71.53515625 C-13.56733643 70.73898631 -6.06080366 67.75398521 -0.375 61.1875 C1.16897719 58.90370041 2.38753772 56.66242455 3.625 54.1875 C5.935 54.5175 8.245 54.8475 10.625 55.1875 C7.10490227 64.81699812 0.79634908 70.85195316 -8.375 75.1875 C-20.29470297 80.61301997 -36.25433573 79.50709844 -48.375 75.1875 C-51.93794639 73.46540925 -55.15124785 71.47589341 -58.375 69.1875 C-59.426875 68.465625 -60.47875 67.74375 -61.5625 67 C-70.77618008 57.78631992 -74.43011628 47.3834395 -74.75 34.5625 C-74.48464525 23.62767309 -70.94129844 14.48850002 -63.62890625 6.2109375 C-46.06499918 -10.36705379 -20.34437612 -10.92568347 0 0 Z " fill="#F5F5F5" transform="translate(506.375,682.8125)"/>
<path d="M0 0 C4.9405481 4.51495782 7.54825661 8.04867489 8.30859375 14.69921875 C8.59845396 21.41870552 7.91456001 25.75216834 3.79296875 31.15625 C1.10540443 33.9199327 -1.50286058 35.38593565 -5 37 C-5.99 37.495 -5.99 37.495 -7 38 C-14.43861494 38.68333733 -21.284881 39.15791053 -27.453125 34.4921875 C-32.51269196 29.61149412 -35.26558344 23.67540249 -35.4375 16.6875 C-35.30587862 10.92712903 -33.87300265 7.25380147 -30 3 C-21.06688947 -5.10171212 -10.4672425 -6.851286 0 0 Z " fill="#3279B3" transform="translate(448,503)"/>
<path d="M0 0 C4.269375 -0.04125 8.53875 -0.0825 12.9375 -0.125 C14.26515381 -0.14320801 15.59280762 -0.16141602 16.96069336 -0.18017578 C34.49468972 -0.26173537 34.49468972 -0.26173537 39.9375 4.875 C40.48277344 5.36742187 41.02804687 5.85984375 41.58984375 6.3671875 C44.954295 10.2628679 45.3861066 13.6218114 45.24609375 18.62109375 C44.68957247 24.00079942 43.40690071 27.75669239 39.3125 31.375 C30.85863876 35.52217721 22.7449931 35.24619306 13.5 35.125 C9.045 35.08375 4.59 35.0425 0 35 C0 23.45 0 11.9 0 0 Z " fill="#0E0E10" transform="translate(226,719)"/>
<path d="M0 0 C5.45777549 3.15921235 10.52011466 8.07987522 12.53125 14.11328125 C13.1495313 20.14152394 12.75117637 25.86757339 9.53125 31.11328125 C4.94738599 36.1535473 0.38521875 39.59409375 -6.484375 40.51953125 C-13.35157514 40.71858053 -18.11678129 40.28004088 -23.58984375 35.92578125 C-28.98345022 30.72280121 -30.78240881 26.72013675 -31.15625 19.11328125 C-30.93385717 13.49335437 -30.13577059 9.88333814 -26.28125 5.734375 C-25.683125 5.19941406 -25.085 4.66445312 -24.46875 4.11328125 C-23.911875 3.58863281 -23.355 3.06398437 -22.78125 2.5234375 C-16.44425189 -2.40685629 -7.40749346 -2.66060287 0 0 Z " fill="#66D3C7" transform="translate(663.46875,246.88671875)"/>
<path d="M0 0 C5.59692798 2.09388618 9.86264957 5.95508956 12.4765625 11.33203125 C14.14203335 16.52300815 14.4222586 22.17686084 12.3671875 27.2890625 C8.48047277 33.81580988 3.52375779 37.49300583 -3.6875 39.9375 C-9.50234735 40.49129499 -14.63632298 40.07137091 -19.6875 36.9375 C-28.45968986 28.60773363 -28.45968986 28.60773363 -28.92578125 23.14453125 C-29.18163017 11.44280946 -29.18163017 11.44280946 -24.6875 5.9375 C-16.83885484 -0.87189768 -10.28235997 -2.87976748 0 0 Z " fill="#4CB0C2" transform="translate(667.6875,419.0625)"/>
<path d="M0 0 C5.9320174 2.7855671 11.14489546 7.14047882 13.6796875 13.27734375 C14.59590775 20.37246396 14.02430412 26.45479303 9.6796875 32.27734375 C4.66166857 37.73276869 -0.29758988 40.2742675 -7.7578125 40.58984375 C-13.13661001 40.41865924 -17.25426148 39.25923791 -21.23828125 35.4375 C-26.68457179 29.40727728 -28.86352477 25.31295736 -28.69921875 17.09765625 C-27.91238225 11.24099695 -24.60650658 7.20883424 -20.2578125 3.40234375 C-13.9433344 -1.16557658 -7.63182732 -2.37691591 0 0 Z " fill="#449DBC" transform="translate(390.3203125,334.72265625)"/>
<path d="M0 0 C4.62 0 9.24 0 14 0 C14 27.06 14 54.12 14 82 C9.38 82 4.76 82 0 82 C0 54.94 0 27.88 0 0 Z " fill="#F3F3F4" transform="translate(303,677)"/>
<path d="M0 0 C6.1875 -0.0928125 6.1875 -0.0928125 12.5 -0.1875 C13.78455078 -0.21481201 15.06910156 -0.24212402 16.39257812 -0.27026367 C24.5043782 -0.32894424 30.51054219 0.16481553 37 5.4375 C40.35007477 9.96861808 39.78125235 15.677262 39 21 C36.69854209 26.04550388 34.10539819 27.97911322 29 30 C25.66645973 31.0398322 22.62452723 31.11543126 19.140625 31.09765625 C18.13547852 31.09515869 17.13033203 31.09266113 16.09472656 31.09008789 C14.8259668 31.08098389 13.55720703 31.07187988 12.25 31.0625 C8.2075 31.041875 4.165 31.02125 0 31 C0 20.77 0 10.54 0 0 Z " fill="#0B0B0C" transform="translate(226,683)"/>
<path d="M0 0 C2.42477918 2.21455851 3.90269884 4.38363387 5.41796875 7.2890625 C5.86849609 8.15015625 6.31902344 9.01125 6.78320312 9.8984375 C7.24662109 10.79820312 7.71003906 11.69796875 8.1875 12.625 C8.63158203 13.470625 9.07566406 14.31625 9.53320312 15.1875 C13.95054337 23.6857399 17.91265691 32.31439593 22 41 C8.47 41 -5.06 41 -19 41 C-14.37695488 30.59814848 -9.75672272 20.24574863 -4.56445312 10.11523438 C-2.86802075 6.79674349 -1.31697498 3.4876674 0 0 Z " fill="#0F0E10" transform="translate(666,691)"/>
<path d="M0 0 C0.66 0.33 1.32 0.66 2 1 C1.026056 1.74139158 1.026056 1.74139158 0.03243637 2.49776077 C-2.72840123 5.89677303 -2.56163701 8.84394215 -2.51898193 13.03582764 C-2.52648319 13.85187226 -2.53398444 14.66791687 -2.541713 15.50869012 C-2.56203356 18.24661054 -2.55387908 20.98370627 -2.54589844 23.72167969 C-2.55463108 25.68284425 -2.56511578 27.64400169 -2.57722473 29.60514832 C-2.60514309 34.93331035 -2.60848813 40.26124057 -2.60750484 45.58946514 C-2.61062893 51.15623383 -2.6362366 56.72289734 -2.65948486 62.28961182 C-2.70008708 72.83281066 -2.72039551 83.37594758 -2.73345876 93.91921258 C-2.7493145 105.92155102 -2.78772411 117.92378387 -2.82805204 129.92606115 C-2.91050879 154.61733869 -2.96456482 179.30861338 -3 204 C-3.33 204 -3.66 204 -4 204 C-4.09334607 177.84470248 -4.16393147 151.68942985 -4.20724869 125.53399944 C-4.22789415 113.39020413 -4.25605266 101.24651218 -4.30175781 89.1027832 C-4.34156482 78.52115128 -4.36741836 67.93959419 -4.37635398 57.35788947 C-4.38157913 51.75235567 -4.39390129 46.14703599 -4.42292023 40.54157066 C-4.44999237 35.2696381 -4.45846162 29.99800865 -4.45243073 24.72601318 C-4.45353464 22.78735013 -4.46153713 20.84867734 -4.4768219 18.91007423 C-4.49662171 16.27017278 -4.49197622 13.63142711 -4.48101807 10.99150085 C-4.49266943 10.21815877 -4.5043208 9.44481669 -4.51632524 8.64804 C-4.45770796 3.4508099 -4.45770796 3.4508099 -1.96993637 1.0005312 C-1.31985737 0.6703559 -0.66977837 0.34018061 0 0 Z " fill="#0E1B23" transform="translate(351,301)"/>
<path d="M0 0 C2.8290723 2.8290723 3.37611108 3.38144425 4 7 C3.01 6.67 2.02 6.34 1 6 C1 26.13 1 46.26 1 67 C0.67 67 0.34 67 0 67 C0 44.89 0 22.78 0 0 Z " fill="#4B4D4D" transform="translate(738,692)"/>
<path d="M0 0 C0.99 0.99 1.98 1.98 3 3 C2.67 3.66 2.34 4.32 2 5 C1.88029939 6.84781542 1.8227304 8.6997936 1.79467773 10.55126953 C1.77473251 11.71232208 1.75478729 12.87337463 1.73423767 14.0696106 C1.71752518 15.32796722 1.70081268 16.58632385 1.68359375 17.8828125 C1.66281265 19.16735321 1.64203156 20.45189392 1.62062073 21.77536011 C1.56540951 25.19149359 1.51599612 28.60768745 1.46777344 32.02392578 C1.41755143 35.50949481 1.36186903 38.99497609 1.30664062 42.48046875 C1.19907072 49.32023642 1.09762316 56.16008334 1 63 C0.67 63 0.34 63 0 63 C0 42.21 0 21.42 0 0 Z " fill="#131316" transform="translate(348,695)"/>
<path d="M0 0 C0.99 0.33 1.98 0.66 3 1 C2.67 1.99 2.34 2.98 2 4 C1.84854901 6.2825699 1.75113021 8.56887706 1.68359375 10.85546875 C1.66281265 11.51710526 1.64203156 12.17874176 1.62062073 12.86042786 C1.55535273 14.96934852 1.49634656 17.07839135 1.4375 19.1875 C1.39429311 20.61915315 1.35067812 22.05079404 1.30664062 23.48242188 C1.19969494 26.98815154 1.09836359 30.49401786 1 34 C0.67 34 0.34 34 0 34 C0 22.78 0 11.56 0 0 Z " fill="#3B96C0" transform="translate(370,384)"/>
<path d="M0 0 C-0.33 0.99 -0.66 1.98 -1 3 C-1.66 3 -2.32 3 -3 3 C-3 6.3 -3 9.6 -3 13 C-1.68 13.33 -0.36 13.66 1 14 C-0.98 14.33 -2.96 14.66 -5 15 C-5.08078641 12.87561661 -5.13909141 10.7503677 -5.1875 8.625 C-5.22230469 7.44164062 -5.25710938 6.25828125 -5.29296875 5.0390625 C-5.19628906 4.03617187 -5.09960938 3.03328125 -5 2 C-2 0 -2 0 0 0 Z " fill="#3B8AA5" transform="translate(374,309)"/>
<path d="M0 0 C2.8290723 2.8290723 3.37611108 3.38144425 4 7 C3.01 6.67 2.02 6.34 1 6 C1 11.28 1 16.56 1 22 C0.67 22 0.34 22 0 22 C0 14.74 0 7.48 0 0 Z " fill="#38383A" transform="translate(738,692)"/>
<path d="M0 0 C1.98 0.99 3.96 1.98 6 3 C5.67 3.66 5.34 4.32 5 5 C3.68 4.67 2.36 4.34 1 4 C0.34 5.65 -0.32 7.3 -1 9 C-2.0326802 6.21176345 -2.04509293 5.1322726 -1.0625 2.25 C-0.711875 1.5075 -0.36125 0.765 0 0 Z " fill="#60C6BB" transform="translate(688,274)"/>
<path d="M0 0 C0 0.99 0 1.98 0 3 C-2.31 2.67 -4.62 2.34 -7 2 C-7 1.34 -7 0.68 -7 0 C-3.86650268 -1.04449911 -3.01031744 -0.93423645 0 0 Z " fill="#343537" transform="translate(270,715)"/>
<path d="M0 0 C0.99 0.99 1.98 1.98 3 3 C2.85546875 5.48046875 2.85546875 5.48046875 2.1875 8.1875 C1.97480469 9.08855469 1.76210938 9.98960937 1.54296875 10.91796875 C1.27419922 11.94857422 1.27419922 11.94857422 1 13 C0.67 13 0.34 13 0 13 C0 8.71 0 4.42 0 0 Z " fill="#1D1D1F" transform="translate(348,695)"/>
</svg>
